<?xml version="1.0" standalone="no"?>
<!DOCTYPE svg PUBLIC "-//W3C//DTD SVG 20010904//EN"
 "http://www.w3.org/TR/2001/REC-SVG-20010904/DTD/svg10.dtd">
<svg version="1.0" xmlns="http://www.w3.org/2000/svg"
 width="1024.000000pt" height="1024.000000pt" viewBox="0 0 1024.000000 1024.000000"
 preserveAspectRatio="xMidYMid meet">
<metadata>
Created by potrace 1.14, written by Peter Selinger 2001-2017
</metadata>
<g transform="translate(0.000000,1024.000000) scale(0.100000,-0.100000)"
fill="#000000" stroke="none">
<path d="M2840 7302 c-7 -3 -10 -739 -10 -2183 l0 -2179 380 0 380 0 0 1499
c0 825 4 1502 9 1505 22 14 50 -44 181 -374 78 -195 147 -368 154 -385 8 -16
20 -48 29 -70 9 -22 32 -78 51 -125 19 -47 67 -166 106 -265 40 -99 78 -193
85 -210 7 -16 105 -259 218 -540 299 -743 398 -988 408 -1007 8 -15 36 -16
291 -15 l281 2 29 70 c15 39 32 79 37 90 5 11 14 34 20 50 5 17 24 64 41 105
17 41 106 260 197 485 91 226 170 421 176 435 5 14 11 30 13 35 2 6 51 127
109 270 59 143 109 267 112 275 3 8 16 40 28 70 13 30 98 242 190 470 92 228
173 428 181 444 8 16 14 33 14 38 0 5 9 29 20 54 11 24 25 55 30 68 6 17 16
24 30 23 20 -1 21 -6 20 -137 -1 -74 -1 -748 0 -1497 l0 -1363 379 0 379 0 -2
2182 -1 2182 -478 1 c-308 0 -482 -4 -487 -10 -4 -5 -25 -50 -45 -100 -20 -49
-45 -109 -56 -132 -10 -24 -19 -46 -19 -49 0 -3 -6 -20 -14 -37 -8 -18 -85
-205 -171 -417 -86 -212 -162 -398 -170 -415 -8 -16 -24 -55 -36 -85 -12 -30
-27 -68 -34 -85 -8 -16 -32 -77 -55 -135 -23 -58 -48 -118 -55 -135 -8 -16
-127 -307 -265 -645 -139 -338 -257 -628 -265 -645 -7 -16 -22 -55 -34 -85
-12 -30 -26 -64 -31 -75 -5 -11 -18 -41 -29 -67 -20 -49 -47 -63 -68 -35 -6 6
-42 91 -81 187 -39 96 -93 229 -120 295 -93 226 -484 1180 -539 1315 -30 74
-63 153 -74 177 -10 23 -19 45 -19 48 0 5 -83 208 -135 330 -7 17 -81 199
-165 405 -84 206 -157 379 -162 385 -7 8 -933 15 -958 7z"/>
</g>
</svg>
